<svg xmlns="http://www.w3.org/2000/svg" width="78.351" height="36.104" viewBox="0 0 78.351 36.104">
    <defs>
        <style>
            .cls-1{fill:#00bcd4}
        </style>
    </defs>
    <g id="logo_diro">
        <g id="Group_5" data-name="Group 5">
            <g id="Group">
                <g id="Group_2" data-name="Group 2">
                    <g id="Group_6" data-name="Group 6">
                        <path id="Combined_Shape" d="M64.078 36.1c-.365 0-.663-.008-.938-.024a14.317 14.317 0 0 1-4.415-.972 12.942 12.942 0 0 1-3.647-2.275 14.124 14.124 0 0 1-3.2-3.86 13.474 13.474 0 0 1-1.489-4.259 16.157 16.157 0 0 1-.244-2.7 13.483 13.483 0 0 1 2.843-8.379 14.373 14.373 0 0 1 3.373-3.24A13.17 13.17 0 0 1 61.5 8.325a14.479 14.479 0 0 1 2.547-.244h.143a16.1 16.1 0 0 1 4.121.539 12.491 12.491 0 0 1 4.3 2.126 14.891 14.891 0 0 1 3.733 4.038 12.9 12.9 0 0 1 1.8 5.014l.016.112c.035.245.071.5.09.75.027.362.048.73.069 1.086l.029.5a13.993 13.993 0 0 1-.99 5.218 13.445 13.445 0 0 1-2.613 4.072 17.322 17.322 0 0 1-2.832 2.449 9.7 9.7 0 0 1-1.715.951 13.661 13.661 0 0 1-3.43.994 14.269 14.269 0 0 1-1.906.168H64.6c-.171.002-.346.002-.522.002zm.137-24.676a11.886 11.886 0 0 0-1.285.069 9.05 9.05 0 0 0-2.117.476 10.757 10.757 0 0 0-2.422 1.289A10.43 10.43 0 0 0 54.77 17.4a11.233 11.233 0 0 0-.934 3.068 10.683 10.683 0 0 0 .693 5.923 10.015 10.015 0 0 0 3.829 4.721 10.354 10.354 0 0 0 5.056 1.712c.249.016.5.024.752.024a12.017 12.017 0 0 0 2.844-.348 9.5 9.5 0 0 0 4.45-2.384 10.671 10.671 0 0 0 3.366-7.956c0-.075-.009-.163-.013-.259-.01-.206-.022-.458-.043-.7a9.715 9.715 0 0 0-.481-2.442 11.071 11.071 0 0 0-5.057-6.044 9.272 9.272 0 0 0-3.825-1.229 12.528 12.528 0 0 0-1.192-.057zm-50.2 24.632c-.242 0-.477 0-.7-.014a13.493 13.493 0 0 1-6.633-1.9 13.67 13.67 0 0 1-3.542-3.135A13.658 13.658 0 0 1 .4 25.513a16.139 16.139 0 0 1-.352-2.373A9.683 9.683 0 0 1 0 21.964c.009-.244.032-.494.058-.749l.021-.222a15.108 15.108 0 0 1 .6-3.1 13.185 13.185 0 0 1 3.3-5.454A15.982 15.982 0 0 1 7.54 9.761a11.294 11.294 0 0 1 3.268-1.174 16.587 16.587 0 0 1 2.739-.309c.22-.007.412-.011.588-.011a14.424 14.424 0 0 1 4.571.727 12.817 12.817 0 0 1 4.662 2.766c.253.233.491.477.755.749.116.12.234.243.351.36l.085.083.051.049V.4c0-.4 0-.4.412-.4h3.033V.083a1.32 1.32 0 0 1 .007.142v.3c0 2.1-.009 4.267-.016 6.409q0 1.371-.012 2.739v.053l-.012 2.735q-.008 2.384-.012 4.769 0 1.906-.008 3.813V22.829a13.2 13.2 0 0 1-1.83 6.332 14.1 14.1 0 0 1-2.467 3.177A13.246 13.246 0 0 1 18.6 35.4a13.4 13.4 0 0 1-2.6.545 17.544 17.544 0 0 1-1.985.116zm.159-24.48a12.388 12.388 0 0 0-2.049.183 9.393 9.393 0 0 0-3.92 1.6 11.831 11.831 0 0 0-2.8 2.841 9.965 9.965 0 0 0-1.824 4.906 11.661 11.661 0 0 0 .453 4.4 10.088 10.088 0 0 0 2.51 4.294 10.339 10.339 0 0 0 6.978 3.032c.186.01.371.016.549.016a11.357 11.357 0 0 0 2.049-.195 10.2 10.2 0 0 0 2.869-.961 9.756 9.756 0 0 0 2.687-2.092 10.672 10.672 0 0 0 2.015-3.054 11.058 11.058 0 0 0 .849-4.2l-.024-.317-.013-.169v-.067c-.025-.343-.051-.7-.089-1.047a9.2 9.2 0 0 0-.933-3.178 11.357 11.357 0 0 0-4.379-4.66 9.438 9.438 0 0 0-4.637-1.327c-.1.002-.195 0-.291 0zm21.314 23.8h-2.913c-.315 0-.344-.028-.344-.336v-6.283-6.282-6.542V9.347a1.482 1.482 0 0 1 0-.171c.015-.121.069-.169.2-.179h3.193a.451.451 0 0 1 .059 0c.107.016.148.061.156.174v25.865c.002.334-.011.347-.351.347zm4.886 0a.331.331 0 0 1-.047 0c-.137-.015-.175-.052-.187-.184-.008-.1-.008-.2-.008-.3v-.7-1.4-6.431h-.008v-1.805V19.783c0-.709 0-1.442.048-2.16a9.215 9.215 0 0 1 1.785-4.946 9.681 9.681 0 0 1 4.611-3.388 11.7 11.7 0 0 1 2.905-.636c.287-.026.587-.048.917-.066h.074c.175 0 .195.053.195.264v2.716a.983.983 0 0 1-.008.129.141.141 0 0 1-.147.138h-.297a7.121 7.121 0 0 0-2.808.523 6.2 6.2 0 0 0-3.041 2.723 7.761 7.761 0 0 0-.9 2.707 14.262 14.262 0 0 0-.15 2.043l-.011 1.2c-.012 1.309-.025 2.663-.024 3.995 0 .978.017 1.971.032 2.932v.013l.019 1.342.013.961c.011.793.022 1.613.03 2.421s.012 1.6.016 2.383c0 .132 0 .215-.043.256s-.129.045-.267.045h-2.715zM34.034 5.7H34a2.747 2.747 0 1 1 .019-5.5h.011a2.794 2.794 0 0 1 1.992.822 2.753 2.753 0 0 1 .8 1.938 2.768 2.768 0 0 1-2.788 2.74z" class="cls-1" data-name="Combined Shape"/>
                    </g>
                </g>
            </g>
        </g>
    </g>
</svg>
